<svg width="104" height="33" viewBox="0 0 104 33" fill="none" xmlns="http://www.w3.org/2000/svg">
<g clip-path="url(#clip0_350_43)">
<path d="M1.22387 26.75V8.718H8.78387C11.4905 8.718 13.5252 9.418 14.8879 10.818C16.2692 12.1993 16.9599 14.5327 16.9599 17.818C16.9599 20.9167 16.2785 23.1847 14.9159 24.622C13.5719 26.0407 11.5279 26.75 8.78387 26.75H1.22387ZM5.00387 23.838H8.25187C9.31587 23.838 10.2119 23.6793 10.9399 23.362C11.6679 23.026 12.2092 22.4287 12.5639 21.57C12.9372 20.6927 13.1239 19.442 13.1239 17.818C13.1239 16.194 12.9559 14.9527 12.6199 14.094C12.2839 13.2353 11.7612 12.6473 11.0519 12.33C10.3425 12.0127 9.4092 11.854 8.25187 11.854H5.00387V23.838ZM23.3607 27.03C22.5207 27.03 21.7367 26.8807 21.0087 26.582C20.2994 26.2647 19.7207 25.8073 19.2727 25.21C18.8434 24.594 18.6287 23.8287 18.6287 22.914C18.6287 21.6073 19.086 20.562 20.0007 19.778C20.934 18.994 22.306 18.602 24.1167 18.602H28.0367V18.238C28.0367 17.4167 27.8034 16.838 27.3367 16.502C26.8887 16.166 25.974 15.998 24.5927 15.998C23.0807 15.998 21.6247 16.2313 20.2247 16.698V14.038C20.8407 13.7953 21.5874 13.5993 22.4647 13.45C23.3607 13.282 24.3314 13.198 25.3767 13.198C27.374 13.198 28.914 13.6087 29.9967 14.43C31.098 15.2327 31.6487 16.53 31.6487 18.322V26.75H28.3727L28.1767 25.546C27.654 26.0127 27.01 26.3767 26.2447 26.638C25.4794 26.8993 24.518 27.03 23.3607 27.03ZM24.3967 24.538C25.2367 24.538 25.9647 24.398 26.5807 24.118C27.1967 23.838 27.682 23.4833 28.0367 23.054V20.954H24.2007C22.726 20.954 21.9887 21.5607 21.9887 22.774C21.9887 23.95 22.7914 24.538 24.3967 24.538ZM39.9566 27.03C38.426 27.03 37.2873 26.6287 36.5406 25.826C35.8126 25.0233 35.4486 23.9313 35.4486 22.55V16.39H33.5726V13.478H35.4486V10.622L39.2286 9.502V13.478H42.5886L42.3646 16.39H39.2286V22.298C39.2286 23.026 39.3966 23.53 39.7326 23.81C40.0686 24.0713 40.5913 24.202 41.3006 24.202C41.8233 24.202 42.3646 24.1087 42.9246 23.922V26.526C42.514 26.694 42.066 26.8153 41.5806 26.89C41.0953 26.9833 40.554 27.03 39.9566 27.03ZM49.7645 27.03C48.1778 27.03 46.9365 26.5913 46.0405 25.714C45.1632 24.818 44.7245 23.5113 44.7245 21.794V13.478H48.5045V21.71C48.5045 22.606 48.7192 23.2593 49.1485 23.67C49.5778 24.062 50.2218 24.258 51.0805 24.258C51.7338 24.258 52.3312 24.1273 52.8725 23.866C53.4325 23.6047 53.9085 23.278 54.3005 22.886V13.478H58.0805V26.75H54.5805L54.4405 25.49C53.8805 25.938 53.2178 26.3113 52.4525 26.61C51.7058 26.89 50.8098 27.03 49.7645 27.03ZM61.2981 26.75V13.478H64.7981L64.9661 14.85C65.5634 14.4767 66.3008 14.1407 67.1781 13.842C68.0741 13.5247 68.9514 13.31 69.8101 13.198V16.054C69.3061 16.1287 68.7554 16.2407 68.1581 16.39C67.5608 16.5393 66.9914 16.7073 66.4501 16.894C65.9088 17.0807 65.4514 17.2767 65.0781 17.482V26.75H61.2981ZM72.6674 11.042V8.074H76.7834V11.042H72.6674ZM72.9754 26.75V16.278H70.9874L71.3234 13.478H76.7554V26.75H72.9754ZM85.2379 27.03C83.7072 27.03 82.5685 26.6287 81.8219 25.826C81.0939 25.0233 80.7299 23.9313 80.7299 22.55V16.39H78.8539V13.478H80.7299V10.622L84.5099 9.502V13.478H87.8699L87.6459 16.39H84.5099V22.298C84.5099 23.026 84.6779 23.53 85.0139 23.81C85.3499 24.0713 85.8725 24.202 86.5819 24.202C87.1045 24.202 87.6459 24.1087 88.2059 23.922V26.526C87.7952 26.694 87.3472 26.8153 86.8619 26.89C86.3765 26.9833 85.8352 27.03 85.2379 27.03ZM92.3599 31.678C91.7813 31.678 91.2679 31.6407 90.8199 31.566C90.3719 31.51 89.9333 31.398 89.5039 31.23V28.57C89.8213 28.682 90.1106 28.7567 90.3719 28.794C90.6519 28.8313 90.9319 28.85 91.2119 28.85C91.9773 28.85 92.5653 28.6727 92.9759 28.318C93.4053 27.9633 93.8346 27.366 94.2639 26.526L88.3279 13.478H92.2759L96.1679 22.494L100.032 13.478H103.952L98.7159 25.826C98.2306 26.9833 97.6986 28.0007 97.1199 28.878C96.5599 29.774 95.8973 30.4647 95.1319 30.95C94.3666 31.4353 93.4426 31.678 92.3599 31.678Z" fill="#16213E"/>
<rect x="56.7792" y="9.75" width="32.1333" height="3.375" transform="rotate(-180 56.7792 9.75)" fill="#F45905"/>
<rect x="92.9292" y="6.375" width="9.0375" height="3.375" fill="#001ED3"/>
</g>
<defs>
<clipPath id="clip0_350_43">
<rect width="103.429" height="31.5" fill="white" transform="translate(0.545837 0.75)"/>
</clipPath>
</defs>
</svg>
